<svg width="286" height="167" viewBox="0 0 286 167" fill="none" xmlns="http://www.w3.org/2000/svg">
<path d="M265.654 23.3738C246.036 29.0765 225.081 26.9301 205.336 25.6904C184.275 24.368 158.259 21.5924 137.058 29.695C120.825 35.8989 111.864 51.2214 111.256 63.4461C110.806 72.4861 119.74 85.4265 113.965 94.3744C106.727 105.59 82.8574 113.01 69.4346 118.034C60.2794 121.461 51.1213 124.916 44.9998 132C39.0101 138.932 36.9998 147 33.3247 152.967" stroke="#3E6265" stroke-width="4" stroke-linecap="round"/>
<path d="M25.3474 148.205C26.9489 150.906 28.5492 154.395 29.2268 157.248C29.4778 158.305 29.7386 159.361 29.9448 160.42C30.017 160.791 30.0585 161.787 30.3663 161.514C33.2477 158.952 38.8329 154.785 42.2312 152.557" stroke="#3E6265" stroke-width="4" stroke-linecap="round"/>
</svg>
