<svg width="165" height="24" viewBox="0 0 165 24" fill="none" xmlns="http://www.w3.org/2000/svg">
<path d="M23.1555 18.0697C24.2014 16.2891 24.8014 14.2147 24.8014 12.0002C24.8014 9.7857 24.2014 7.7113 23.1555 5.93066L17.5527 12.0002L23.1555 18.0697Z" fill="#3E6265"/>
<path fill-rule="evenodd" clip-rule="evenodd" d="M21.2842 20.4859C19.1126 22.6568 16.113 23.9995 12.7999 23.9995C6.17241 23.9995 0.799805 18.6269 0.799805 11.9995C0.799805 5.3721 6.17241 -0.000488281 12.7999 -0.000488281C16.113 -0.000488281 19.1126 1.34218 21.2842 3.51311H17.1289L9.33365 11.9995L17.1289 20.4859H21.2842ZM7.42383 5.90794L8.34026 4.99151L9.25664 5.90794L8.34026 6.82431L7.42383 5.90794ZM8.33749 4.44997L8.06725 3.88751L4.73582 5.4882L5.00606 6.05066L8.33749 4.44997Z" fill="#3E6265"/>
<path d="M35.0874 22.7221V5.87953C35.0874 5.64804 35.1606 5.45951 35.3069 5.31378C35.4618 5.15954 35.6512 5.08237 35.875 5.08237H38.3669C38.5907 5.08237 38.7758 5.15954 38.922 5.31378C39.077 5.45951 39.1545 5.64804 39.1545 5.87953V6.26518C40.5145 5.30518 42.094 4.82518 43.893 4.82518C45.692 4.82518 47.194 5.45951 48.3991 6.72808C49.6041 7.98806 50.2067 9.7967 50.2067 12.1538C50.2067 14.5027 49.5826 16.302 48.3345 17.5537C47.0864 18.8053 45.4036 19.4307 43.2862 19.4307C42.193 19.4307 40.9492 19.2122 39.5547 18.7752V22.7221C39.5547 22.9535 39.4772 23.1427 39.3224 23.2881C39.176 23.4426 38.9909 23.5194 38.7672 23.5194H35.875C35.6512 23.5194 35.4618 23.4426 35.3069 23.2881C35.1606 23.1427 35.0874 22.9535 35.0874 22.7221ZM39.5547 15.8056C40.6651 16.1567 41.5991 16.3322 42.3566 16.3322C43.5357 16.3322 44.3707 15.9985 44.8614 15.3292C45.3606 14.6609 45.6102 13.5939 45.6102 12.1281C45.6102 10.6623 45.3735 9.59949 44.9001 8.93947C44.4352 8.27094 43.7338 7.93668 42.7955 7.93668C41.8659 7.93668 40.7856 8.32232 39.5547 9.0938V15.8056ZM52.5953 2.39519V1.95807C52.5953 1.50377 52.7245 1.14381 52.9826 0.878119C53.2495 0.612336 53.6153 0.479492 54.0801 0.479492H55.6812C56.1373 0.479492 56.4989 0.612336 56.7657 0.878119C57.0325 1.13522 57.166 1.49526 57.166 1.95807V2.39519C57.166 2.8495 57.0325 3.20955 56.7657 3.47524C56.5075 3.74093 56.1459 3.87378 55.6812 3.87378H54.0801C53.624 3.87378 53.2624 3.74093 52.9956 3.47524C52.7288 3.20955 52.5953 2.8495 52.5953 2.39519ZM52.647 18.3893V6.18811C52.647 5.9567 52.7201 5.76808 52.8665 5.62235C53.0214 5.4767 53.2108 5.40383 53.4345 5.40383H56.3267C56.5591 5.40383 56.7485 5.48091 56.8948 5.63524C57.0411 5.78097 57.1143 5.9652 57.1143 6.18811V18.3893C57.1143 18.6207 57.0368 18.8099 56.8819 18.9553C56.7356 19.1006 56.5505 19.1738 56.3267 19.1738H53.4345C53.2022 19.1738 53.0128 19.1006 52.8665 18.9553C52.7201 18.8099 52.647 18.6207 52.647 18.3893ZM59.2059 18.7752C59.1715 18.6892 59.1543 18.5868 59.1543 18.4671C59.1543 18.3381 59.2232 18.1964 59.3609 18.0419L63.854 12.1152L59.6578 6.2138C59.3824 5.85375 59.3652 5.53668 59.6062 5.26239C59.7095 5.14235 59.8558 5.08237 60.0452 5.08237H62.847C63.6819 5.08237 64.3533 5.45951 64.8612 6.2138L67.0045 9.45384L69.1478 6.2138C69.6556 5.45951 70.327 5.08237 71.1619 5.08237H73.9638C74.1531 5.08237 74.2994 5.14235 74.4027 5.26239C74.6437 5.53668 74.6266 5.85375 74.3511 6.2138L70.1548 12.1152L74.6481 18.0419C74.7858 18.1964 74.8546 18.3427 74.8546 18.4799C74.8546 18.6079 74.8374 18.7066 74.8029 18.7752C74.7341 19.0412 74.5491 19.1738 74.2477 19.1738H71.4976C70.7057 19.1738 70.0344 18.7971 69.4835 18.0419L67.0045 14.6993L64.5125 18.0419C63.9703 18.7971 63.3032 19.1738 62.5113 19.1738H59.7611C59.4599 19.1738 59.2748 19.0412 59.2059 18.7752ZM77.7726 17.5537C76.4471 16.302 75.7843 14.5027 75.7843 12.1538C75.7843 9.7967 76.4513 7.98806 77.7855 6.72808C79.1197 5.45951 80.9703 4.82518 83.3374 4.82518C85.7046 4.82518 87.5509 5.44232 88.8765 6.67661C90.202 7.90239 90.8648 9.66376 90.8648 11.9609V12.6938C90.8648 12.9252 90.7873 13.1185 90.6324 13.2721C90.4861 13.4184 90.2967 13.4906 90.0643 13.4906H80.342C80.4281 14.5457 80.7293 15.3128 81.2458 15.7928C81.7709 16.2728 82.6058 16.5123 83.7506 16.5123C84.8954 16.5123 85.6787 16.2554 86.1005 15.7406C86.5223 15.2268 87.043 14.9653 87.6628 14.9571H89.5866C89.819 14.9571 90.0084 15.0339 90.1546 15.1884C90.3096 15.3338 90.3871 15.5221 90.3871 15.7534C90.3871 18.2138 88.0329 19.4399 83.3245 19.4307C80.9488 19.4307 79.0982 18.8053 77.7726 17.5537ZM80.3161 10.7781H86.32C86.2339 8.75524 85.2354 7.74376 83.3245 7.74376C81.4222 7.74376 80.4194 8.75524 80.3161 10.7781ZM93.2405 18.3893V1.53376C93.2405 1.30235 93.3137 1.11382 93.46 0.968086C93.615 0.813846 93.8043 0.73668 94.0281 0.73668H96.9203C97.1441 0.73668 97.3291 0.813846 97.4755 0.968086C97.6304 1.11382 97.7079 1.30235 97.7079 1.53376V18.3893C97.7079 18.6124 97.6304 18.8008 97.4755 18.9553C97.3291 19.1006 97.1441 19.1738 96.9203 19.1738H94.0281C93.8043 19.1738 93.615 19.1006 93.46 18.9553C93.3137 18.8008 93.2405 18.6124 93.2405 18.3893ZM101.788 18.2485C100.652 17.4595 100.084 16.345 100.084 14.905C100.084 13.465 100.652 12.3595 101.788 11.5881C102.933 10.8167 104.405 10.4309 106.204 10.4309H110.477C110.477 9.42806 110.266 8.72954 109.845 8.33521C109.423 7.94097 108.683 7.74376 107.624 7.74376C106.574 7.74376 105.833 8.00525 105.403 8.52804C104.981 9.04241 104.461 9.29951 103.841 9.29951H101.917C101.685 9.29951 101.491 9.22664 101.336 9.0809C101.19 8.92667 101.116 8.73805 101.116 8.51524C101.116 6.05526 103.462 4.82518 108.153 4.82518C110.202 4.82518 111.846 5.28379 113.085 6.20091C114.325 7.10952 114.944 8.51953 114.944 10.4309V18.3893C114.944 18.6207 114.872 18.8099 114.725 18.9553C114.579 19.1006 114.39 19.1738 114.157 19.1738H111.665C111.433 19.1738 111.243 19.1006 111.097 18.9553C110.951 18.8008 110.878 18.6124 110.878 18.3893V17.9907C109.518 18.9599 107.947 19.4399 106.165 19.4307C104.392 19.4307 102.933 19.0366 101.788 18.2485ZM106.513 13.3498C105.911 13.3498 105.433 13.4952 105.08 13.7868C104.736 14.0785 104.564 14.4552 104.564 14.9178C104.564 15.3813 104.745 15.7626 105.106 16.0625C105.468 16.3624 105.98 16.5123 106.643 16.5123C107.968 16.5123 109.246 16.1265 110.477 15.3548V13.3498H106.513ZM124.873 16.3834L126.643 16.2298H127.12C127.352 16.2298 127.542 16.302 127.688 16.4483C127.843 16.5937 127.921 16.782 127.921 17.0142V18.3893C127.921 18.5777 127.843 18.7496 127.688 18.9041C127.542 19.0495 127.352 19.139 127.12 19.1738C126.242 19.3457 125.097 19.4307 123.686 19.4307C119.984 19.4307 118.134 17.5025 118.134 13.6451V1.53376C118.134 1.30235 118.207 1.11382 118.353 0.968086C118.509 0.813846 118.698 0.73668 118.922 0.73668H121.814C122.037 0.73668 122.223 0.813846 122.369 0.968086C122.524 1.11382 122.601 1.30235 122.601 1.53376V5.82806H126.204C126.427 5.82806 126.612 5.90093 126.758 6.04667C126.913 6.1924 126.991 6.38093 126.991 6.61234V8.14239C126.991 8.3738 126.913 8.56241 126.758 8.70806C126.612 8.8538 126.427 8.92666 126.204 8.92666H122.601V13.6451C122.601 14.5192 122.807 15.1966 123.221 15.6767C123.634 16.1484 124.185 16.3834 124.873 16.3834ZM131.096 17.5537C129.772 16.302 129.109 14.5027 129.109 12.1538C129.109 9.7967 129.775 7.98806 131.109 6.72808C132.444 5.45951 134.294 4.82518 136.661 4.82518C139.029 4.82518 140.875 5.44232 142.201 6.67661C143.526 7.90239 144.189 9.66376 144.189 11.9609V12.6938C144.189 12.9252 144.111 13.1185 143.957 13.2721C143.81 13.4184 143.621 13.4906 143.389 13.4906H133.666C133.753 14.5457 134.054 15.3128 134.57 15.7928C135.095 16.2728 135.93 16.5123 137.075 16.5123C138.219 16.5123 139.003 16.2554 139.425 15.7406C139.846 15.2268 140.367 14.9653 140.987 14.9571H142.911C143.143 14.9571 143.333 15.0339 143.479 15.1884C143.634 15.3338 143.712 15.5221 143.712 15.7534C143.712 18.2138 141.357 19.4399 136.648 19.4307C134.273 19.4307 132.422 18.8053 131.096 17.5537ZM133.641 10.7781H139.644C139.558 8.75524 138.56 7.74376 136.648 7.74376C134.746 7.74376 133.743 8.75524 133.641 10.7781ZM146.564 2.39519V1.95807C146.564 1.50377 146.694 1.14381 146.952 0.878119C147.219 0.612336 147.585 0.479492 148.049 0.479492H149.65C150.107 0.479492 150.468 0.612336 150.736 0.878119C151.002 1.13522 151.135 1.49526 151.135 1.95807V2.39519C151.135 2.8495 151.002 3.20955 150.736 3.47524C150.477 3.74093 150.115 3.87378 149.65 3.87378H148.049C147.594 3.87378 147.232 3.74093 146.965 3.47524C146.699 3.20955 146.564 2.8495 146.564 2.39519ZM146.617 18.3893V6.18811C146.617 5.9567 146.689 5.76808 146.836 5.62235C146.991 5.4767 147.181 5.40383 147.404 5.40383H150.296C150.528 5.40383 150.718 5.48091 150.864 5.63524C151.011 5.78097 151.084 5.9652 151.084 6.18811V18.3893C151.084 18.6207 151.006 18.8099 150.851 18.9553C150.705 19.1006 150.52 19.1738 150.296 19.1738H147.404C147.171 19.1738 146.982 19.1006 146.836 18.9553C146.689 18.8099 146.617 18.6207 146.617 18.3893ZM161.051 16.3834L162.82 16.2298H163.298C163.53 16.2298 163.72 16.302 163.866 16.4483C164.021 16.5937 164.098 16.782 164.098 17.0142V18.3893C164.098 18.5777 164.021 18.7496 163.866 18.9041C163.72 19.0495 163.53 19.139 163.298 19.1738C162.42 19.3457 161.275 19.4307 159.864 19.4307C156.162 19.4307 154.312 17.5025 154.312 13.6451V1.53376C154.312 1.30235 154.384 1.11382 154.531 0.968086C154.686 0.813846 154.876 0.73668 155.1 0.73668H157.992C158.215 0.73668 158.4 0.813846 158.546 0.968086C158.701 1.11382 158.779 1.30235 158.779 1.53376V5.82806H162.381C162.605 5.82806 162.79 5.90093 162.937 6.04667C163.091 6.1924 163.169 6.38093 163.169 6.61234V8.14239C163.169 8.3738 163.091 8.56241 162.937 8.70806C162.79 8.8538 162.605 8.92666 162.381 8.92666H158.779V13.6451C158.779 14.5192 158.985 15.1966 159.398 15.6767C159.812 16.1484 160.362 16.3834 161.051 16.3834Z" fill="#3E6265"/>
</svg>
