<svg width="164" height="24" viewBox="0 0 164 24" fill="none" xmlns="http://www.w3.org/2000/svg">
<path d="M22.3559 18.0697C23.4018 16.2891 24.0018 14.2147 24.0018 12.0002C24.0018 9.7857 23.4018 7.7113 22.3559 5.93066L16.7532 12.0002L22.3559 18.0697Z" fill="#26888D"/>
<path fill-rule="evenodd" clip-rule="evenodd" d="M20.4844 20.486C18.3128 22.657 15.3132 23.9996 12 23.9996C5.37261 23.9996 0 18.627 0 11.9996C0 5.37222 5.37261 -0.000366211 12 -0.000366211C15.3132 -0.000366211 18.3128 1.3423 20.4844 3.51323H16.3291L8.53385 11.9996L16.3291 20.486H20.4844ZM6.62403 5.90806L7.54046 4.99163L8.45683 5.90806L7.54046 6.82443L6.62403 5.90806ZM7.53768 4.45009L7.26744 3.88763L3.93602 5.48833L4.20626 6.05078L7.53768 4.45009Z" fill="#26888D"/>
<path d="M34.2874 22.7225V5.8799C34.2874 5.6484 34.3605 5.45988 34.5069 5.31414C34.6618 5.1599 34.8512 5.08274 35.0749 5.08274H37.5669C37.7906 5.08274 37.9757 5.1599 38.122 5.31414C38.277 5.45988 38.3545 5.6484 38.3545 5.8799V6.26555C39.7144 5.30555 41.2939 4.82555 43.0929 4.82555C44.892 4.82555 46.3939 5.45988 47.599 6.72845C48.8041 7.98843 49.4067 9.79706 49.4067 12.1542C49.4067 14.5031 48.7826 16.3024 47.5345 17.554C46.2863 18.8057 44.6036 19.4311 42.4861 19.4311C41.393 19.4311 40.1492 19.2126 38.7547 18.7755V22.7225C38.7547 22.9538 38.6772 23.1431 38.5223 23.2884C38.376 23.443 38.1909 23.5198 37.9671 23.5198H35.0749C34.8512 23.5198 34.6618 23.443 34.5069 23.2884C34.3605 23.1431 34.2874 22.9538 34.2874 22.7225ZM38.7547 15.8059C39.8651 16.157 40.799 16.3326 41.5565 16.3326C42.7357 16.3326 43.5706 15.9988 44.0613 15.3296C44.5606 14.6612 44.8101 13.5943 44.8101 12.1285C44.8101 10.6627 44.5734 9.59985 44.1 8.93983C43.6352 8.27131 42.9337 7.93704 41.9955 7.93704C41.0658 7.93704 39.9856 8.32269 38.7547 9.09416V15.8059ZM51.7952 2.39556V1.95844C51.7952 1.50413 51.9244 1.14418 52.1826 0.878485C52.4494 0.612703 52.8153 0.479858 53.28 0.479858H54.8811C55.3372 0.479858 55.6988 0.612703 55.9656 0.878485C56.2324 1.13558 56.3659 1.49563 56.3659 1.95844V2.39556C56.3659 2.84987 56.2324 3.20991 55.9656 3.4756C55.7074 3.7413 55.3459 3.87414 54.8811 3.87414H53.28C52.8239 3.87414 52.4623 3.7413 52.1955 3.4756C51.9287 3.20991 51.7952 2.84987 51.7952 2.39556ZM51.8469 18.3897V6.18847C51.8469 5.95707 51.9201 5.76845 52.0664 5.62271C52.2213 5.47707 52.4107 5.4042 52.6345 5.4042H55.5267C55.759 5.4042 55.9485 5.48127 56.0947 5.6356C56.2411 5.78134 56.3142 5.96557 56.3142 6.18847V18.3897C56.3142 18.621 56.2368 18.8103 56.0819 18.9556C55.9355 19.101 55.7504 19.1742 55.5267 19.1742H52.6345C52.4021 19.1742 52.2127 19.101 52.0664 18.9556C51.9201 18.8103 51.8469 18.621 51.8469 18.3897ZM58.4059 18.7755C58.3714 18.6896 58.3543 18.5872 58.3543 18.4674C58.3543 18.3385 58.4231 18.1968 58.5609 18.0423L63.054 12.1156L58.8578 6.21416C58.5823 5.85412 58.5652 5.53704 58.8062 5.26276C58.9095 5.14271 59.0557 5.08274 59.2452 5.08274H62.047C62.8818 5.08274 63.5533 5.45988 64.0611 6.21416L66.2044 9.45421L68.3478 6.21416C68.8556 5.45988 69.5269 5.08274 70.3619 5.08274H73.1637C73.353 5.08274 73.4994 5.14271 73.6027 5.26276C73.8437 5.53704 73.8265 5.85412 73.5511 6.21416L69.3548 12.1156L73.848 18.0423C73.9857 18.1968 74.0546 18.3431 74.0546 18.4802C74.0546 18.6082 74.0373 18.707 74.0029 18.7755C73.934 19.0416 73.749 19.1742 73.4477 19.1742H70.6976C69.9057 19.1742 69.2343 18.7975 68.6834 18.0423L66.2044 14.6996L63.7125 18.0423C63.1702 18.7975 62.5031 19.1742 61.7112 19.1742H58.9611C58.6598 19.1742 58.4747 19.0416 58.4059 18.7755ZM76.9726 17.554C75.647 16.3024 74.9842 14.5031 74.9842 12.1542C74.9842 9.79706 75.6512 7.98843 76.9855 6.72845C78.3197 5.45988 80.1703 4.82555 82.5373 4.82555C84.9045 4.82555 86.7508 5.44269 88.0764 6.67698C89.402 7.90276 90.0648 9.66413 90.0648 11.9613V12.6942C90.0648 12.9256 89.9873 13.1188 89.8324 13.2724C89.686 13.4187 89.4966 13.491 89.2642 13.491H79.542C79.628 14.546 79.9293 15.3131 80.4457 15.7931C80.9708 16.2731 81.8058 16.5127 82.9505 16.5127C84.0954 16.5127 84.8786 16.2558 85.3004 15.741C85.7222 15.2272 86.243 14.9657 86.8627 14.9575H88.7865C89.0189 14.9575 89.2083 15.0343 89.3546 15.1888C89.5096 15.3342 89.5871 15.5225 89.5871 15.7538C89.5871 18.2142 87.2328 19.4402 82.5245 19.4311C80.1488 19.4311 78.2982 18.8057 76.9726 17.554ZM79.5161 10.7785H85.52C85.4338 8.7556 84.4353 7.74413 82.5245 7.74413C80.6222 7.74413 79.6194 8.7556 79.5161 10.7785ZM92.4405 18.3897V1.53412C92.4405 1.30272 92.5137 1.11419 92.6599 0.968452C92.8149 0.814212 93.0042 0.737046 93.2281 0.737046H96.1202C96.3441 0.737046 96.5291 0.814212 96.6754 0.968452C96.8303 1.11419 96.9078 1.30272 96.9078 1.53412V18.3897C96.9078 18.6128 96.8303 18.8011 96.6754 18.9556C96.5291 19.101 96.3441 19.1742 96.1202 19.1742H93.2281C93.0042 19.1742 92.8149 19.101 92.6599 18.9556C92.5137 18.8011 92.4405 18.6128 92.4405 18.3897ZM100.988 18.2489C99.8517 17.4599 99.2835 16.3454 99.2835 14.9054C99.2835 13.4654 99.8517 12.3599 100.988 11.5884C102.133 10.817 103.605 10.4313 105.404 10.4313H109.677C109.677 9.42842 109.466 8.72991 109.045 8.33558C108.623 7.94134 107.883 7.74413 106.824 7.74413C105.774 7.74413 105.033 8.00562 104.603 8.5284C104.181 9.04278 103.661 9.29988 103.041 9.29988H101.117C100.885 9.29988 100.691 9.22701 100.536 9.08127C100.39 8.92703 100.316 8.73841 100.316 8.5156C100.316 6.05563 102.662 4.82555 107.353 4.82555C109.402 4.82555 111.046 5.28415 112.285 6.20127C113.525 7.10989 114.144 8.5199 114.144 10.4313V18.3897C114.144 18.621 114.072 18.8103 113.925 18.9556C113.779 19.101 113.59 19.1742 113.357 19.1742H110.865C110.633 19.1742 110.443 19.101 110.297 18.9556C110.151 18.8011 110.078 18.6128 110.078 18.3897V17.9911C108.717 18.9602 107.147 19.4402 105.365 19.4311C103.592 19.4311 102.133 19.037 100.988 18.2489ZM105.713 13.3502C105.111 13.3502 104.633 13.4955 104.28 13.7872C103.936 14.0788 103.764 14.4555 103.764 14.9182C103.764 15.3817 103.945 15.763 104.306 16.0628C104.668 16.3627 105.18 16.5127 105.843 16.5127C107.168 16.5127 108.446 16.1268 109.677 15.3552V13.3502H105.713ZM124.073 16.3838L125.842 16.2302H126.32C126.552 16.2302 126.742 16.3024 126.888 16.4487C127.043 16.594 127.121 16.7824 127.121 17.0146V18.3897C127.121 18.578 127.043 18.7499 126.888 18.9044C126.742 19.0498 126.552 19.1394 126.32 19.1742C125.442 19.346 124.297 19.4311 122.886 19.4311C119.184 19.4311 117.334 17.5028 117.334 13.6455V1.53412C117.334 1.30272 117.407 1.11419 117.553 0.968452C117.709 0.814212 117.898 0.737046 118.122 0.737046H121.014C121.237 0.737046 121.423 0.814212 121.569 0.968452C121.724 1.11419 121.801 1.30272 121.801 1.53412V5.82843H125.404C125.627 5.82843 125.812 5.90129 125.958 6.04703C126.113 6.19277 126.191 6.3813 126.191 6.6127V8.14276C126.191 8.37416 126.113 8.56278 125.958 8.70843C125.812 8.85416 125.627 8.92703 125.404 8.92703H121.801V13.6455C121.801 14.5195 122.007 15.197 122.421 15.677C122.834 16.1488 123.385 16.3838 124.073 16.3838ZM130.296 17.554C128.972 16.3024 128.309 14.5031 128.309 12.1542C128.309 9.79706 128.975 7.98843 130.309 6.72845C131.644 5.45988 133.494 4.82555 135.861 4.82555C138.229 4.82555 140.075 5.44269 141.4 6.67698C142.726 7.90276 143.389 9.66413 143.389 11.9613V12.6942C143.389 12.9256 143.311 13.1188 143.157 13.2724C143.01 13.4187 142.821 13.491 142.589 13.491H132.866C132.953 14.546 133.254 15.3131 133.77 15.7931C134.295 16.2731 135.13 16.5127 136.274 16.5127C137.419 16.5127 138.203 16.2558 138.625 15.741C139.046 15.2272 139.567 14.9657 140.187 14.9575H142.111C142.343 14.9575 142.533 15.0343 142.679 15.1888C142.834 15.3342 142.912 15.5225 142.912 15.7538C142.912 18.2142 140.557 19.4402 135.848 19.4311C133.473 19.4311 131.622 18.8057 130.296 17.554ZM132.841 10.7785H138.844C138.758 8.7556 137.76 7.74413 135.848 7.74413C133.946 7.74413 132.943 8.7556 132.841 10.7785ZM145.764 2.39556V1.95844C145.764 1.50413 145.894 1.14418 146.152 0.878485C146.419 0.612703 146.784 0.479858 147.249 0.479858H148.85C149.307 0.479858 149.668 0.612703 149.936 0.878485C150.202 1.13558 150.335 1.49563 150.335 1.95844V2.39556C150.335 2.84987 150.202 3.20991 149.936 3.4756C149.677 3.7413 149.315 3.87414 148.85 3.87414H147.249C146.794 3.87414 146.432 3.7413 146.165 3.4756C145.898 3.20991 145.764 2.84987 145.764 2.39556ZM145.817 18.3897V6.18847C145.817 5.95707 145.889 5.76845 146.036 5.62271C146.19 5.47707 146.381 5.4042 146.604 5.4042H149.496C149.728 5.4042 149.918 5.48127 150.064 5.6356C150.211 5.78134 150.284 5.96557 150.284 6.18847V18.3897C150.284 18.621 150.206 18.8103 150.051 18.9556C149.905 19.101 149.72 19.1742 149.496 19.1742H146.604C146.371 19.1742 146.182 19.101 146.036 18.9556C145.889 18.8103 145.817 18.621 145.817 18.3897ZM160.251 16.3838L162.02 16.2302H162.498C162.73 16.2302 162.92 16.3024 163.066 16.4487C163.221 16.594 163.298 16.7824 163.298 17.0146V18.3897C163.298 18.578 163.221 18.7499 163.066 18.9044C162.92 19.0498 162.73 19.1394 162.498 19.1742C161.62 19.346 160.475 19.4311 159.064 19.4311C155.362 19.4311 153.512 17.5028 153.512 13.6455V1.53412C153.512 1.30272 153.584 1.11419 153.731 0.968452C153.886 0.814212 154.076 0.737046 154.3 0.737046H157.192C157.415 0.737046 157.6 0.814212 157.746 0.968452C157.901 1.11419 157.979 1.30272 157.979 1.53412V5.82843H161.581C161.805 5.82843 161.99 5.90129 162.137 6.04703C162.291 6.19277 162.369 6.3813 162.369 6.6127V8.14276C162.369 8.37416 162.291 8.56278 162.137 8.70843C161.99 8.85416 161.805 8.92703 161.581 8.92703H157.979V13.6455C157.979 14.5195 158.185 15.197 158.598 15.677C159.011 16.1488 159.562 16.3838 160.251 16.3838Z" fill="#26888D"/>
</svg>
