<svg width="25" height="24" viewBox="0 0 25 24" fill="none" xmlns="http://www.w3.org/2000/svg">
<path d="M22.3557 18.0701C23.4016 16.2895 24.0016 14.2151 24.0016 12.0006C24.0016 9.78607 23.4016 7.71167 22.3557 5.93103L16.7529 12.0006L22.3557 18.0701Z" fill="#E4623F"/>
<path fill-rule="evenodd" clip-rule="evenodd" d="M20.4844 20.4864C18.3128 22.6573 15.3132 24 12 24C5.37261 24 0 18.6274 0 12C0 5.37259 5.37261 0 12 0C15.3132 0 18.3128 1.34267 20.4844 3.5136H16.3291L8.53385 12L16.3291 20.4864H20.4844ZM6.62403 5.90843L7.54046 4.992L8.45684 5.90843L7.54046 6.8248L6.62403 5.90843ZM7.53768 4.45045L7.26744 3.888L3.93602 5.48869L4.20626 6.05115L7.53768 4.45045Z" fill="#E4623F"/>
</svg>
