<svg width="44" height="44" viewBox="0 0 44 44" fill="none" xmlns="http://www.w3.org/2000/svg">
<path d="M32.9521 10.624C34.6161 9.66401 36.0241 9.44001 37.1761 9.95201C38.3281 10.4 39.1921 11.104 39.7681 12.064C40.3441 13.088 40.5361 14.208 40.3441 15.424C40.2161 16.64 39.3201 17.728 37.6561 18.688C36.0561 19.584 34.0081 20.224 31.5121 20.608C29.0801 20.928 26.0081 21.504 22.2961 22.336L22.2001 22.048C24.5681 19.36 26.5521 17.024 28.1521 15.04C29.8161 12.992 31.4161 11.52 32.9521 10.624ZM22.3921 22.048C25.8481 22.816 28.8561 23.392 31.4161 23.776C34.0401 24.16 36.1201 24.8 37.6561 25.696C39.3201 26.656 40.2481 27.776 40.4401 29.056C40.6321 30.272 40.4081 31.36 39.7681 32.32C39.2561 33.344 38.4241 34.08 37.2721 34.528C36.1201 34.976 34.7121 34.72 33.0481 33.76C31.4481 32.864 29.8801 31.456 28.3441 29.536C26.8081 27.552 24.7601 25.152 22.2001 22.336L22.3921 22.048ZM22.4881 22.24C23.5761 25.632 24.6001 28.544 25.5601 30.976C26.5201 33.344 27.0001 35.456 27.0001 37.312C27.0001 39.232 26.4881 40.576 25.4641 41.344C24.4401 42.112 23.3841 42.496 22.2961 42.496C21.0801 42.496 19.9921 42.112 19.0321 41.344C18.1361 40.576 17.6881 39.232 17.6881 37.312C17.6881 35.456 18.1361 33.376 19.0321 31.072C19.9281 28.768 20.9841 25.856 22.2001 22.336L22.4881 22.24ZM22.2001 22.24L22.3921 22.432C19.9601 25.056 17.9441 27.392 16.3441 29.44C14.7441 31.488 13.1761 32.96 11.6401 33.856C9.97608 34.816 8.53608 35.072 7.32008 34.624C6.16808 34.112 5.30408 33.376 4.72808 32.416C4.15208 31.392 3.96008 30.272 4.15208 29.056C4.34408 27.84 5.27208 26.752 6.93608 25.792C8.53608 24.896 10.5521 24.256 12.9841 23.872C15.4161 23.488 18.4881 22.944 22.2001 22.24ZM11.5441 10.72C13.1441 11.616 14.7121 13.056 16.2481 15.04C17.7841 16.96 19.8001 19.328 22.2961 22.144L22.2001 22.432C18.6801 21.664 15.6401 21.088 13.0801 20.704C10.5201 20.32 8.44008 19.68 6.84008 18.784C5.24008 17.824 4.34408 16.736 4.15208 15.52C3.96008 14.24 4.15208 13.12 4.72808 12.16C5.30408 11.136 6.16808 10.4 7.32008 9.95201C8.47208 9.50401 9.88008 9.76001 11.5441 10.72ZM22.2961 1.98401C23.4481 1.98401 24.5041 2.36801 25.4641 3.13601C26.4241 3.90401 26.9041 5.24801 26.9041 7.16801C26.9041 8.96001 26.4241 11.04 25.4641 13.408C24.5681 15.712 23.5441 18.656 22.3921 22.24H22.1041C20.9521 18.848 19.8961 15.936 18.9361 13.504C18.0401 11.072 17.5921 8.96001 17.5921 7.16801C17.5921 5.24801 18.0721 3.90401 19.0321 3.13601C20.0561 2.36801 21.1441 1.98401 22.2961 1.98401Z" fill="#3E6265"/>
</svg>
