<svg width="40" height="40" viewBox="0 0 40 40" fill="none" xmlns="http://www.w3.org/2000/svg">
<path d="M10.6667 8C9.19792 8 8 9.19792 8 10.6667V29.3333C8 30.8021 9.19792 32 10.6667 32H29.3333C30.8021 32 32 30.8021 32 29.3333V10.6667C32 9.19792 30.8021 8 29.3333 8H10.6667ZM12.5417 14.25H16C19.0677 14.25 19.5833 16.1354 19.5833 17.3333C19.5833 19.0677 18.3906 19.6146 18.125 19.75C18.3906 19.8854 19.75 20.25 19.75 22.25C19.8854 24.651 18.3854 25.5833 16.25 25.5833H12.5417V14.25ZM21.875 14.25H26.7917V15.5833H21.875V14.25ZM14.7917 16.125V18.9167H16C16.8021 18.9167 17.3333 18.651 17.3333 17.5833C17.3333 16.651 16.9323 16.125 16 16.125H14.7917ZM24.7917 17.0833C26.6563 17.0833 28 18.1406 28 21.2083V22.125H23.4583C23.4583 22.526 23.4844 24 25.0833 24C26.151 24 26.651 23.474 26.9167 23.2083L27.875 24.5417C27.7396 24.6771 26.8177 25.75 25.0833 25.75C23.0833 25.75 21.4583 24.6771 21.4583 21.875V21.2083C21.4583 18.1406 23.0573 17.0833 24.7917 17.0833ZM24.5417 18.7917C24.1406 18.7917 23.3333 18.9427 23.3333 20.5417H25.5833C25.5833 20.5417 25.875 18.7917 24.5417 18.7917ZM14.7917 20.6667V23.75H16.25C17.0521 23.75 17.4583 23.1823 17.4583 22.25C17.5938 21.1823 17.2188 20.6667 16.4167 20.6667H14.7917Z" fill="white" fill-opacity="0.75"/>
</svg>
