<svg width="51" height="40" viewBox="0 0 51 40" fill="none" xmlns="http://www.w3.org/2000/svg">
<path fill-rule="evenodd" clip-rule="evenodd" d="M3.29245 6.80982C3.23644 7.64938 3.18174 8.53407 3.12952 9.42156C2.99732 11.6683 2.88002 13.9555 2.79925 15.5303C2.74727 16.5438 2.71042 17.2622 2.69448 17.4849C2.64254 18.2102 1.99801 18.7571 1.25487 18.7064C0.511732 18.6557 -0.0485986 18.0266 0.0033377 17.3013C0.0188354 17.0849 0.0537052 16.4028 0.103455 15.4297C0.182691 13.8799 0.299673 11.5918 0.436253 9.27059C0.546323 7.39992 0.668478 5.52221 0.791858 4.04277C0.853424 3.30454 0.916297 2.65313 0.979465 2.1465C1.01093 1.89417 1.04412 1.66413 1.07962 1.47079C1.10855 1.31319 1.15773 1.06726 1.24988 0.853245C1.27822 0.787432 1.33745 0.660616 1.44384 0.526057C1.53556 0.410063 1.79316 0.121593 2.25634 0.0282802C2.79547 -0.0803351 3.21403 0.14635 3.42868 0.327848C3.61744 0.487451 3.71603 0.659142 3.7543 0.729948C3.83736 0.883651 3.87817 1.02864 3.89324 1.08313C3.914 1.15818 3.93002 1.23137 3.94161 1.28768C3.95384 1.34709 3.97202 1.44456 3.98532 1.51585C3.99162 1.54961 3.99682 1.5775 3.99978 1.5927C4.00842 1.63711 4.01404 1.66199 4.0164 1.67238C4.24502 2.29771 4.52479 2.99123 4.78661 3.59512C5.70314 5.70912 6.72942 7.77034 7.77353 9.86737C7.98487 10.2918 8.19694 10.7178 8.40898 11.1459C8.5284 11.387 8.64539 11.6254 8.76106 11.8611C8.892 12.1279 9.02126 12.3913 9.15045 12.6513C9.34036 8.89907 9.51693 4.53311 9.56047 1.3458C9.57041 0.618757 10.1823 0.0372312 10.9272 0.0469251C11.6721 0.056619 12.2679 0.653862 12.2579 1.38091C12.2001 5.61801 11.9115 11.8709 11.6659 16.0774C11.6632 16.1242 11.6605 16.1728 11.6577 16.2221C11.6472 16.4133 11.636 16.6156 11.6191 16.7711C11.6086 16.8683 11.589 17.0216 11.5425 17.18L11.5409 17.1854C11.5133 17.2801 11.3808 17.7349 10.9092 18.0232C10.2372 18.4339 9.60244 18.1426 9.38117 18.0039C9.16454 17.868 9.01564 17.6977 8.9461 17.6153C8.78637 17.426 8.6128 17.1664 8.44009 16.8993C7.61288 15.6204 6.94313 14.2541 6.31349 12.9695C6.20133 12.7407 6.09044 12.5145 5.98017 12.2919C5.77352 11.8746 5.56507 11.456 5.3559 11.036C4.66295 9.64443 3.96208 8.23698 3.29245 6.80982ZM8.93259 16.5241C8.93257 16.5241 8.93272 16.523 8.93308 16.521C8.93277 16.523 8.9326 16.524 8.93259 16.5241ZM11.0253 15.9375C11.0363 15.9493 11.0375 15.952 11.0282 15.941C11.0273 15.9399 11.0263 15.9387 11.0253 15.9375Z" fill="#3E6265"/>
<path fill-rule="evenodd" clip-rule="evenodd" d="M19.2502 0.988756C20.8095 -0.32545 22.9345 -0.18562 24.4052 0.572387C25.4947 1.1339 26.8871 2.39728 27.0543 4.20146C27.1329 5.04949 26.9928 5.95116 26.8809 6.57169C26.7233 7.44646 26.4488 8.68364 25.5242 9.62799C24.8676 10.2986 24.0594 10.6379 23.3556 10.836C22.7429 11.0084 22.1035 11.0996 21.604 11.1708C21.5353 11.1806 21.4691 11.19 21.4061 11.1992C20.2917 11.3621 19.1749 11.4532 18.098 11.5376C18.0727 12.2015 18.0828 12.8688 18.127 13.5341C18.1845 14.4016 18.3469 15.1676 18.6667 15.722C18.9993 16.2985 19.6224 16.5698 20.7636 16.5905C23.3418 16.6372 25.9762 15.8553 28.6108 14.9225C29.2921 14.6812 30.0284 15.0723 30.2555 15.796C30.4826 16.5197 30.1144 17.3019 29.4331 17.5431C26.7728 18.4851 23.7747 19.4078 20.7193 19.3525C19.3502 19.3277 17.5098 19.0035 16.4494 17.1654C15.8097 16.0566 15.602 14.7717 15.5328 13.7282C15.3258 10.6078 15.7665 7.37137 17.0272 4.46783C17.0318 4.4573 17.0364 4.44669 17.041 4.436C17.455 3.48248 18.1263 1.93603 19.2502 0.988756ZM18.4237 8.74156C19.3189 8.669 20.1884 8.58878 21.0517 8.46262C21.1236 8.45211 21.1946 8.44189 21.2647 8.43179C21.7795 8.35767 22.2462 8.29047 22.6897 8.16569C23.1868 8.02583 23.5151 7.84783 23.7217 7.63677C24.0127 7.33954 24.178 6.87762 24.3268 6.05228C24.4362 5.44489 24.5048 4.88795 24.4663 4.47209C24.426 4.03721 23.9729 3.41993 23.27 3.05767C22.4205 2.61985 21.427 2.68036 20.8667 3.15268C20.3006 3.62979 19.8566 4.54721 19.3887 5.6248C18.9586 6.61545 18.6389 7.6629 18.4237 8.74156Z" fill="#3E6265"/>
<path fill-rule="evenodd" clip-rule="evenodd" d="M49.4127 0.0684452C50.1084 0.301281 50.4854 1.0592 50.2547 1.7613C49.687 3.48864 45.3238 16.1119 44.6105 17.8535C44.5969 17.887 44.5826 17.922 44.5678 17.9583C44.423 18.3146 44.2247 18.8023 43.9542 19.2425C43.8787 19.3655 43.6416 19.7366 43.1697 19.912C42.8902 20.0159 42.5739 20.0324 42.2669 19.9367C41.9829 19.8482 41.7861 19.6888 41.6671 19.5678C41.4502 19.3472 41.3402 19.0983 41.2924 18.9824C41.2327 18.8378 41.1873 18.6892 41.1524 18.5614C41.0786 18.2906 40.994 17.8714 40.9155 17.4821C40.8696 17.2547 40.8258 17.0375 40.7873 16.866C40.6806 16.3896 40.3144 14.1198 39.8988 11.544C39.8567 11.283 39.8141 11.0189 39.7712 10.7532C39.4575 12.8294 39.1155 14.7973 38.7872 15.983C38.5351 16.8938 38.2579 17.8066 37.9594 18.7049C37.959 18.7062 37.9578 18.71 37.9555 18.7177L37.9548 18.7198C37.9509 18.7325 37.9431 18.758 37.934 18.7855C37.916 18.8403 37.8787 18.9485 37.8159 19.0694C37.6916 19.3087 37.3415 19.8143 36.6367 19.882C36.1221 19.9315 35.6288 19.7277 35.3032 19.3235C35.0554 19.0159 34.9796 18.6811 34.9517 18.5447C34.9234 18.4064 34.9072 18.2584 34.8996 18.189C34.8986 18.1801 34.8978 18.1725 34.8971 18.1663C34.8947 18.1452 34.8927 18.1298 34.8913 18.1191C34.5072 16.832 33.8044 14.2537 33.4 12.7697C33.3181 12.4695 33.2485 12.2141 33.1962 12.0232C32.9739 11.2118 32.6922 10.1542 32.3864 9.00618C31.7085 6.46097 30.9122 3.47133 30.3817 1.7341C30.1659 1.02719 30.5588 0.277559 31.2593 0.0597455C31.9598 -0.158068 32.7027 0.238418 32.9186 0.945322C33.4635 2.72995 34.2876 5.82386 34.9715 8.39098C35.2713 9.51667 35.5442 10.5411 35.7547 11.3093C35.8094 11.5087 35.8812 11.7721 35.9649 12.0793C36.1172 12.6381 36.3091 13.3419 36.5091 14.0694C36.7931 12.6856 37.0955 10.7592 37.3787 8.765C37.6317 6.98331 37.8608 5.21194 38.0433 3.80112C38.1268 3.1554 38.2005 2.58522 38.2623 2.12413C38.2665 2.03967 38.2784 1.9158 38.3123 1.78862C38.3289 1.72663 38.3715 1.5802 38.472 1.41794C38.5638 1.26969 38.8305 0.909469 39.3524 0.80871C39.8945 0.70403 40.2878 0.958244 40.445 1.0875C40.6049 1.21888 40.6962 1.35676 40.7318 1.41306C40.8475 1.59619 40.9028 1.78872 40.9126 1.82301C40.9132 1.82485 40.9136 1.82623 40.9138 1.82713C40.9364 1.90289 40.9569 1.98431 40.9749 2.06054C41.0456 2.36033 41.1393 2.84766 41.2452 3.43568C41.4602 4.62904 41.7484 6.36543 42.0432 8.17483C42.2169 9.24102 42.3917 10.3242 42.5553 11.3382C42.7413 12.4907 42.9128 13.5537 43.052 14.4009C44.5521 10.2036 47.2883 2.27748 47.7351 0.918122C47.9658 0.216022 48.7169 -0.164391 49.4127 0.0684452ZM40.9148 2.22967C40.9148 2.20341 40.9162 2.21032 40.9148 2.2396V2.22967Z" fill="#3E6265"/>
<path fill-rule="evenodd" clip-rule="evenodd" d="M32.7549 26.5545C33.4145 26.8348 33.724 27.6017 33.4463 28.2675C32.2922 31.0342 31.1099 33.7814 29.9286 36.5264C29.8789 36.642 29.8292 36.7575 29.7794 36.873C29.7838 36.8628 29.7697 36.9029 29.7295 37.0172C29.7109 37.0702 29.6866 37.1393 29.6559 37.2267C29.5753 37.4566 29.47 37.7554 29.3614 38.0502C29.2549 38.3393 29.1363 38.6489 29.029 38.8928C28.9785 39.0077 28.9121 39.1508 28.8363 39.2786C28.8032 39.3343 28.7315 39.4512 28.6226 39.5681C28.5695 39.6251 28.4601 39.7343 28.2949 39.8281C28.1307 39.9212 27.7944 40.0628 27.369 39.9695C26.5569 39.7913 26.2021 39.1308 26.0754 38.8671C26.0082 38.7272 25.9522 38.5824 25.9175 38.4924C25.9143 38.4841 25.9112 38.4762 25.9084 38.4689C25.865 38.3572 25.8494 38.3218 25.8415 38.3065C25.5465 37.7365 25.2642 37.1636 24.9896 36.5941C24.274 35.1098 23.2841 32.978 22.5106 31.3122C22.3489 30.9641 22.1967 30.6363 22.0585 30.3391C21.7543 29.6852 22.0329 28.9063 22.6807 28.5993C23.3285 28.2923 24.1002 28.5735 24.4044 29.2274C24.5445 29.5286 24.6981 29.8595 24.8608 30.2098C25.6348 31.8765 26.6137 33.9845 27.3199 35.4495C27.3634 35.5396 27.4069 35.6295 27.4505 35.7192C27.4835 35.6424 27.5166 35.5656 27.5496 35.4888C28.7324 32.7402 29.9095 30.0052 31.0578 27.2524C31.3355 26.5866 32.0953 26.2742 32.7549 26.5545ZM28.4149 37.7405C28.4149 37.7405 28.4141 37.7392 28.4125 37.7362C28.4141 37.739 28.4149 37.7405 28.4149 37.7405Z" fill="#3E6265"/>
</svg>
